<?xml version="1.0" encoding="utf-8"?>
<!-- Generator: Adobe Illustrator 23.0.3, SVG Export Plug-In . SVG Version: 6.00 Build 0)  -->
<svg fill="#FFF" version="1.1" id="Layer_1" xmlns="http://www.w3.org/2000/svg" xmlns:xlink="http://www.w3.org/1999/xlink" x="0px" y="0px"
	 viewBox="0 0 520.34 518.67" style="enable-background:new 0 0 520.34 518.67;" xml:space="preserve">

<g>
	<path class="st0" d="M468.2,396.54L420.77,55.08c-4.1-29.5-29.65-51.75-59.43-51.75h-68.17v40h68.17c9.93,0,18.44,7.41,19.81,17.25
		l36.15,260.25c-52.13,15.09-91.84,59.72-99.7,114.5H120.73c-8.25-23.28-30.49-40-56.56-40c-33.09,0-60,26.91-60,60s26.91,60,60,60
		c26.07,0,48.31-16.72,56.56-40h235.44v-20c0-43.47,27.89-80.55,66.71-94.3l5.7,41.04c-19.23,10-32.41,30.11-32.41,53.25
		c0,33.09,26.91,60,60,60s60-26.91,60-60C516.17,426.37,495.54,402.13,468.2,396.54L468.2,396.54z M64.17,475.33
		c-11.03,0-20-8.97-20-20c0-11.03,8.97-20,20-20s20,8.97,20,20C84.17,466.36,75.2,475.33,64.17,475.33L64.17,475.33z M456.17,475.33
		c-11.03,0-20-8.97-20-20c0-11.03,8.97-20,20-20s20,8.97,20,20C476.17,466.36,467.2,475.33,456.17,475.33L456.17,475.33z
		 M456.17,475.33"/>
</g>
</svg>
