<?xml version="1.0" encoding="utf-8"?>
<!-- Generator: Adobe Illustrator 23.0.3, SVG Export Plug-In . SVG Version: 6.00 Build 0)  -->
<svg version="1.1" id="Layer_1" xmlns="http://www.w3.org/2000/svg" xmlns:xlink="http://www.w3.org/1999/xlink" x="0px" y="0px"
	 viewBox="0 0 520.3 518.7" style="enable-background:new 0 0 520.3 518.7;" xml:space="preserve">
<style type="text/css">
	.st0{fill:#31465A;stroke:#FFFFFF;stroke-width:7;}
</style>
<g>
	<path class="st0" d="M468.2,396.5L420.8,55.1c-4.1-29.5-29.6-51.8-59.4-51.8h-68.2v40h68.2c9.9,0,18.4,7.4,19.8,17.3l36.1,260.3
		c-52.1,15.1-91.8,59.7-99.7,114.5H120.7c-8.3-23.3-30.5-40-56.6-40c-33.1,0-60,26.9-60,60s26.9,60,60,60c26.1,0,48.3-16.7,56.6-40
		h235.4v-20c0-43.5,27.9-80.5,66.7-94.3l5.7,41c-19.2,10-32.4,30.1-32.4,53.3c0,33.1,26.9,60,60,60s60-26.9,60-60
		C516.2,426.4,495.5,402.1,468.2,396.5L468.2,396.5z M64.2,475.3c-11,0-20-9-20-20s9-20,20-20s20,9,20,20S75.2,475.3,64.2,475.3
		L64.2,475.3z M456.2,475.3c-11,0-20-9-20-20s9-20,20-20s20,9,20,20S467.2,475.3,456.2,475.3L456.2,475.3z"/>
</g>
</svg>
